<svg width="19" height="21" viewBox="0 0 19 21" fill="none" xmlns="http://www.w3.org/2000/svg">
<path fill-rule="evenodd" clip-rule="evenodd" d="M4.29032 5.25648C4.29032 2.3534 6.62277 0 9.5 0C12.3772 0 14.7097 2.3534 14.7097 5.25648C14.7097 8.15955 12.3772 10.513 9.5 10.513C6.62277 10.513 4.29032 8.15955 4.29032 5.25648ZM9.5 1.85523C7.63827 1.85523 6.12903 3.37802 6.12903 5.25648C6.12903 7.13493 7.63827 8.65773 9.5 8.65773C11.3617 8.65773 12.871 7.13493 12.871 5.25648C12.871 3.37802 11.3617 1.85523 9.5 1.85523Z" fill="white"/>
<path fill-rule="evenodd" clip-rule="evenodd" d="M4.59677 14.2234C3.07354 14.2234 1.83871 15.4693 1.83871 17.0062V18.4759C1.83871 18.4983 1.85478 18.5174 1.87667 18.521C6.92547 19.3527 12.0745 19.3527 17.1233 18.521C17.1452 18.5174 17.1613 18.4983 17.1613 18.4759V17.0062C17.1613 15.4693 15.9265 14.2234 14.4032 14.2234H13.9854C13.9531 14.2234 13.921 14.2286 13.8903 14.2387L12.8293 14.5882C10.666 15.301 8.33403 15.301 6.17069 14.5882L5.10974 14.2387C5.07903 14.2286 5.04692 14.2234 5.01461 14.2234H4.59677ZM0 17.0062C0 14.4447 2.05805 12.3682 4.59677 12.3682H5.01461C5.24077 12.3682 5.46549 12.4043 5.68048 12.4751L6.74143 12.8246C8.53391 13.4152 10.4661 13.4152 12.2586 12.8246L13.3195 12.4751C13.5345 12.4043 13.7592 12.3682 13.9854 12.3682H14.4032C16.942 12.3682 19 14.4447 19 17.0062V18.4759C19 19.4075 18.3309 20.2019 17.4196 20.352C12.1746 21.216 6.82541 21.216 1.5804 20.352C0.669148 20.2019 0 19.4075 0 18.4759V17.0062Z" fill="white"/>
</svg>
